<?xml version="1.0" encoding="UTF-8"?>
<svg id="_レイヤー_1" data-name="レイヤー 1" xmlns="http://www.w3.org/2000/svg" version="1.1" viewBox="0 0 170 28.41">
  <defs>
    <style>
      .cls-1 {
        fill: #000;
        stroke-width: 0px;
      }
    </style>
  </defs>
  <path class="cls-1" d="M78.52,27.93c-.12,0-.22-.1-.22-.22,0-.1.05-.22.17-.32,1.27-.15,1.44-.35,1.49-.97.1-1.32.15-2.36.15-3.46v-1.07c0-2.19-.02-4.42-2.34-4.42-2.07,0-3.09,1.62-3.09,3.33v4.52c0,1.49.15,2.04,1.53,2.04.12.1.17.22.17.35s-.07.22-.19.22h-4.56c-.15,0-.22-.1-.22-.22s.05-.25.17-.35c1.12-.15,1.31-.35,1.36-.97.1-1.34.1-2.01.1-3.23v-2.11c0-2.61-.85-3.55-2.36-3.55-1.95,0-3.09,1.57-3.09,3.31v2.68c0,3.53,0,3.88,1.73,3.88.1.1.15.22.15.35s-.07.22-.17.22h-4.92c-.12,0-.19-.1-.19-.22s.05-.25.17-.35c1.24-.15,1.41-.3,1.49-.92.1-.72.12-1.42.12-2.61v-4.6c0-1.17-.12-1.27-1.24-1.59-.07-.1-.1-.2-.1-.27,0-.1.02-.17.1-.22.97-.2,1.88-.57,2.44-.8.22,0,.32.12.32.42v1.86q0,.05.02.05s.07-.02.15-.1c.8-1.24,2.14-2.19,3.43-2.19,1.75,0,2.85.75,3.41,2.21.02.05.05.07.05.07.02,0,.05-.02.1-.07.8-1.24,2.17-2.21,3.48-2.21,2.92,0,3.65,2.04,3.65,4.65v2.49c0,1.09,0,2.21.05,2.88.12.7.54.97,1.63.97.12.1.17.22.17.32,0,.12-.07.22-.19.22h-4.89Z"/>
  <path class="cls-1" d="M96.61,22.44c0-.22-.02-.3-.12-.3h-.07c-3.63.8-4.56,1.24-4.56,3.06s1.19,2.09,1.88,2.09c1.53,0,2.78-1.32,2.8-2.39l.07-2.46ZM98.39,28.16c-1.15,0-1.56-.92-1.68-1.74-.02-.1-.02-.15-.05-.15-.05,0-.07.02-.15.1-.58.92-1.51,1.89-3.39,1.89-1.41,0-3.02-.72-3.02-2.86,0-2.51,1.78-3.03,6.31-3.88.15-.07.24-.4.24-1.79,0-1.86-.78-2.61-2.27-2.61-.73,0-1.58.5-1.58,1.04,0,.15.27.42.27.72,0,.75-.46,1.12-1.07,1.12-.71,0-1.07-.62-1.07-1.14,0-1.07,1.85-2.56,3.99-2.56,2.73,0,3.41,1.81,3.41,3.06,0,1.17-.12,3.13-.12,5.52,0,1.57.12,2.24.71,2.24.27,0,.56-.17.9-.7h.05c.22,0,.41.25.41.37-.36.82-1.09,1.37-1.9,1.37Z"/>
  <path class="cls-1" d="M113.54,27.93c-.12,0-.19-.1-.19-.22s.05-.25.17-.35c1.24-.15,1.44-.37,1.49-.97.1-1.12.12-2.09.12-3.58v-1.14c0-1.89-.1-2.81-.54-3.38-.39-.52-1.05-.85-1.8-.85-2.07,0-3.24,1.59-3.24,3.33v2.61c0,1.09,0,2.31.05,3.01.07.67.46.97,1.66.97.1.1.15.22.15.35s-.07.22-.17.22h-4.87c-.12,0-.19-.1-.19-.22s.05-.25.17-.35c1.22-.15,1.44-.37,1.49-.97.07-.99.1-1.91.1-2.93v-10.54c0-1.24-.02-1.27-1.36-1.69-.05-.05-.1-.12-.1-.2s.05-.15.1-.2c1.05-.25,2.31-.65,2.9-.87.17,0,.32.02.32.22v.05c-.15,2.26-.22,4.23-.22,6.69v1.67c0,.07,0,.1.05.1.78-1.39,2.19-2.34,3.61-2.34,3.48,0,3.58,3.36,3.58,4.48v2.63c0,1.09,0,2.24.05,2.91.12.72.54.99,1.63.99.12.1.17.22.17.35s-.07.22-.19.22h-4.9Z"/>
  <path class="cls-1" d="M131.47,22.44c0-.22-.02-.3-.12-.3h-.07c-3.63.8-4.56,1.24-4.56,3.06s1.19,2.09,1.88,2.09c1.53,0,2.78-1.32,2.8-2.39l.07-2.46ZM133.25,28.16c-1.15,0-1.56-.92-1.68-1.74-.02-.1-.02-.15-.05-.15-.05,0-.07.02-.15.1-.58.92-1.51,1.89-3.39,1.89-1.41,0-3.02-.72-3.02-2.86,0-2.51,1.78-3.03,6.31-3.88.15-.07.24-.4.24-1.79,0-1.86-.78-2.61-2.27-2.61-.73,0-1.58.5-1.58,1.04,0,.15.27.42.27.72,0,.75-.46,1.12-1.07,1.12-.71,0-1.07-.62-1.07-1.14,0-1.07,1.85-2.56,3.99-2.56,2.73,0,3.41,1.81,3.41,3.06,0,1.17-.12,3.13-.12,5.52,0,1.57.12,2.24.71,2.24.27,0,.56-.17.9-.7h.05c.22,0,.41.25.41.37-.36.82-1.09,1.37-1.9,1.37Z"/>
  <path class="cls-1" d="M148.28,27.93c-.15,0-.22-.1-.22-.2,0-.12.05-.25.19-.35,1.24-.15,1.41-.35,1.46-.97.1-1.09.15-1.76.15-3.23v-1.49c0-2.11-.02-4.2-2.36-4.2-2.05,0-3.24,1.57-3.24,3.31v2.73c0,3.53.02,3.85,1.73,3.85.1.1.15.2.15.3,0,.15-.07.25-.19.25h-4.9c-.12,0-.19-.1-.19-.22,0-.1.05-.22.17-.32,1.24-.15,1.44-.35,1.46-.97.12-1.32.15-2.78.15-4.97v-2.21c0-1.17-.12-1.27-1.27-1.62-.05-.07-.1-.15-.1-.22,0-.1.05-.17.12-.22.95-.2,1.88-.57,2.44-.8.22,0,.32.12.32.42v1.91s.02.05.02.05c.05,0,.07-.02.12-.07.78-1.39,2.24-2.29,3.63-2.29,1.78,0,3.58.85,3.58,4.48v2.66c0,1.09,0,2.21.07,2.88.1.7.54.97,1.61.97.12.1.17.22.17.32,0,.12-.07.22-.19.22h-4.87Z"/>
  <path class="cls-1" d="M166.33,22.44c0-.22-.02-.3-.12-.3h-.07c-3.63.8-4.56,1.24-4.56,3.06s1.19,2.09,1.88,2.09c1.53,0,2.78-1.32,2.8-2.39l.07-2.46ZM168.1,28.16c-1.15,0-1.56-.92-1.68-1.74-.02-.1-.02-.15-.05-.15-.05,0-.07.02-.15.1-.58.92-1.51,1.89-3.39,1.89-1.41,0-3.02-.72-3.02-2.86,0-2.51,1.78-3.03,6.31-3.88.15-.07.24-.4.24-1.79,0-1.86-.78-2.61-2.27-2.61-.73,0-1.58.5-1.58,1.04,0,.15.27.42.27.72,0,.75-.46,1.12-1.07,1.12-.71,0-1.07-.62-1.07-1.14,0-1.07,1.85-2.56,3.99-2.56,2.73,0,3.41,1.81,3.41,3.06,0,1.17-.12,3.13-.12,5.52,0,1.57.12,2.24.71,2.24.27,0,.56-.17.9-.7h.05c.22,0,.41.25.41.37-.36.82-1.09,1.37-1.9,1.37Z"/>
  <path class="cls-1" d="M18.04,28.1h18.98v-.86c0-5.34-4.26-9.68-9.49-9.68s-9.49,4.34-9.49,9.68v.86h0ZM37.32,28.41h-19.58v-1.17c0-5.51,4.39-9.99,9.79-9.99s9.79,4.48,9.79,9.99v1.17Z"/>
  <path class="cls-1" d="M5.19,17.53s-.04,0-.06-.01l-2.72-1.31c-.08-.04-.11-.13-.07-.21.04-.08.13-.11.2-.07l2.72,1.31c.08.04.11.13.07.21-.03.06-.08.09-.14.09Z"/>
  <path class="cls-1" d="M25.7,3.33c-.08,0-.14-.06-.15-.14l-.25-3.02c0-.09.06-.16.14-.17.08,0,.16.06.16.14l.25,3.02c0,.09-.06.16-.14.17,0,0,0,0-.01,0Z"/>
  <path class="cls-1" d="M48.26,13.55s-.09-.02-.12-.07c-.05-.07-.03-.17.04-.22l2.46-1.79c.07-.05.16-.03.21.04.05.07.03.17-.04.22l-2.46,1.79s-.06.03-.09.03Z"/>
  <path class="cls-1" d="M.15,28.34C.07,28.34,0,28.27,0,28.18c0-.09.07-.16.15-.16l15.56-.13h0c.08,0,.15.07.15.15,0,.09-.07.16-.15.16l-15.56.13h0Z"/>
  <path class="cls-1" d="M15.96,25.38s-.03,0-.04,0l-7.53-1.94c-.08-.02-.13-.11-.11-.19.02-.08.1-.13.18-.11l7.53,1.94c.08.02.13.11.11.19-.02.07-.08.12-.15.12Z"/>
  <path class="cls-1" d="M16.72,23.09s-.04,0-.06-.01l-9.79-4.72c-.08-.04-.11-.13-.07-.21.04-.08.13-.11.2-.07l9.79,4.72c.08.04.11.13.07.21-.03.06-.08.09-.14.09Z"/>
  <path class="cls-1" d="M15.39,19.41s-.06,0-.09-.03l-9.21-6.7c-.07-.05-.08-.15-.04-.22.05-.07.14-.09.21-.04l9.21,6.7c.07.05.08.15.04.22-.03.04-.08.07-.12.07Z"/>
  <path class="cls-1" d="M18.05,17.44s-.08-.02-.11-.05l-5.27-5.95c-.06-.06-.05-.16.01-.22.06-.06.16-.05.21.01l5.27,5.95c.06.06.05.16-.01.22-.03.03-.06.04-.1.04Z"/>
  <path class="cls-1" d="M20.98,18.04s-.1-.02-.13-.07l-2.39-3.65c-.05-.07-.03-.17.04-.22.07-.05.16-.03.21.04l2.39,3.65c.05.07.03.17-.04.22-.03.02-.06.03-.08.03Z"/>
  <path class="cls-1" d="M18.15,13.72s-.1-.02-.13-.07l-5.94-9.06c-.05-.07-.03-.17.04-.22.07-.05.16-.03.21.04l5.94,9.06c.05.07.03.17-.04.22-.03.02-.06.03-.08.03Z"/>
  <path class="cls-1" d="M22.53,17.2c-.06,0-.11-.03-.14-.09L15.61,2.66c-.04-.08,0-.17.07-.21.07-.04.17,0,.2.07l6.78,14.45c.04.08,0,.17-.07.21-.02,0-.04.01-.07.01Z"/>
  <path class="cls-1" d="M24.7,16.41c-.07,0-.13-.05-.15-.12l-1.97-7.65c-.02-.08.03-.17.11-.19.08-.02.16.03.19.11l1.97,7.65c.02.08-.03.17-.11.19-.01,0-.03,0-.04,0Z"/>
  <path class="cls-1" d="M26.77,16.14c-.08,0-.14-.06-.15-.14l-.91-10.87c0-.09.06-.16.14-.17.08,0,.16.06.16.14l.91,10.87c0,.09-.06.16-.14.17,0,0,0,0-.01,0Z"/>
  <path class="cls-1" d="M29.07,13.21s0,0-.01,0c-.08,0-.15-.08-.14-.17l.94-11.31c0-.09.09-.15.16-.14.08,0,.15.08.14.17l-.94,11.31c0,.08-.07.14-.15.14Z"/>
  <path class="cls-1" d="M32.05,14.44s-.03,0-.04,0c-.08-.03-.13-.11-.1-.19l2.29-7.57c.03-.08.11-.13.19-.1s.13.11.1.19l-2.29,7.57c-.02.07-.08.11-.15.11Z"/>
  <path class="cls-1" d="M33.07,17.2s-.04,0-.07-.01c-.08-.04-.11-.13-.07-.21l1.85-3.94c.04-.08.13-.11.2-.07.08.04.11.13.07.21l-1.85,3.94c-.03.06-.08.09-.14.09Z"/>
  <path class="cls-1" d="M35.26,12.54s-.04,0-.07-.01c-.08-.04-.11-.13-.07-.21l4.59-9.78c.04-.08.13-.11.2-.07.08.04.11.13.07.21l-4.59,9.78c-.03.05-.08.09-.14.09Z"/>
  <path class="cls-1" d="M34.62,18.04s-.06,0-.08-.03c-.07-.05-.09-.14-.04-.22l8.77-13.38c.05-.07.14-.09.21-.04.07.05.09.14.04.22l-8.77,13.38s-.08.07-.13.07Z"/>
  <path class="cls-1" d="M36.48,19.45s-.08-.01-.11-.04c-.06-.06-.06-.16,0-.22l5.52-5.72c.06-.06.15-.06.21,0,.06.06.06.16,0,.22l-5.52,5.72s-.07.05-.11.05Z"/>
  <path class="cls-1" d="M37.82,21.15s-.09-.02-.12-.07c-.05-.07-.03-.17.04-.22l8.86-6.44c.07-.05.16-.03.21.04.05.07.03.17-.04.22l-8.86,6.44s-.06.03-.09.03Z"/>
  <path class="cls-1" d="M41.52,21.82c-.06,0-.11-.03-.14-.09-.04-.08,0-.17.07-.21l10.18-4.91c.08-.04.17,0,.2.07.04.08,0,.17-.07.21l-10.18,4.91s-.04.01-.06.01Z"/>
  <path class="cls-1" d="M41.87,25.59c-.07,0-.13-.05-.15-.12-.02-.08.04-.17.12-.18l7.61-1.54c.08-.02.16.04.18.12.02.08-.04.17-.12.18l-7.61,1.54s-.02,0-.03,0Z"/>
  <path class="cls-1" d="M44.14,28.34h0l-4.25-.04c-.08,0-.15-.07-.15-.16,0-.09.07-.15.15-.15h0l4.25.04c.08,0,.15.07.15.16,0,.08-.07.15-.15.15Z"/>
  <path class="cls-1" d="M55.45,28.36h0l-10.53-.09c-.08,0-.15-.07-.15-.16s.07-.16.15-.15l10.53.09c.08,0,.15.07.15.16,0,.09-.07.15-.15.15Z"/>
  <path class="cls-1" d="M34.16,25.27c-.43,0-.78.36-.78.79s.35.79.78.79.78-.36.78-.79-.35-.79-.78-.79ZM34.16,27.07c-.54,0-.98-.45-.98-1s.44-1,.98-1,.98.45.98,1-.44,1-.98,1Z"/>
</svg>